<mxfile host="app.diagrams.net" modified="2023-04-20T15:10:07.002Z" agent="Mozilla/5.0 (Windows NT 10.0; Win64; x64) AppleWebKit/537.36 (KHTML, like Gecko) Chrome/112.0.0.0 Safari/537.36" version="21.2.1" etag="j2enSpTBrAP2-tJ9EdX8" type="github">
  <diagram name="Page-1" id="6VhujJ-cft7Jn44bZEQq">
    <mxGraphModel>
      <root>
        <mxCell id="0" />
        <mxCell id="1" parent="0" />
      </root>
    </mxGraphModel>
  </diagram>
</mxfile>
